<mxfile host="app.diagrams.net" agent="Mozilla/5.0 (X11; Linux x86_64) AppleWebKit/537.36 (KHTML, like Gecko) Chrome/131.0.0.0 Safari/537.36" version="24.8.8">
  <diagram name="Page-1" id="WBDv5_wROoBOC59eoUjj">
    <mxGraphModel dx="1050" dy="538" grid="1" gridSize="10" guides="1" tooltips="1" connect="1" arrows="1" fold="1" page="1" pageScale="1" pageWidth="1169" pageHeight="827" math="0" shadow="0">
      <root>
        <mxCell id="0" />
        <mxCell id="1" parent="0" />
        <mxCell id="Nx9srBpKDY4uUFDvCekh-71" value="" style="endArrow=none;html=1;rounded=0;entryX=0.023;entryY=0.589;entryDx=0;entryDy=0;entryPerimeter=0;exitX=0.611;exitY=-0.007;exitDx=0;exitDy=0;exitPerimeter=0;" parent="1" source="Nx9srBpKDY4uUFDvCekh-70" target="Nx9srBpKDY4uUFDvCekh-47" edge="1">
          <mxGeometry width="50" height="50" relative="1" as="geometry">
            <mxPoint x="183" y="652" as="sourcePoint" />
            <mxPoint x="263" y="618" as="targetPoint" />
          </mxGeometry>
        </mxCell>
        <mxCell id="Nx9srBpKDY4uUFDvCekh-72" value="" style="endArrow=none;html=1;rounded=0;entryX=0.384;entryY=1.041;entryDx=0;entryDy=0;entryPerimeter=0;exitX=0.395;exitY=0.107;exitDx=0;exitDy=0;exitPerimeter=0;" parent="1" source="Nx9srBpKDY4uUFDvCekh-54" target="Nx9srBpKDY4uUFDvCekh-47" edge="1">
          <mxGeometry width="50" height="50" relative="1" as="geometry">
            <mxPoint x="243" y="668" as="sourcePoint" />
            <mxPoint x="278" y="627" as="targetPoint" />
          </mxGeometry>
        </mxCell>
        <mxCell id="Nx9srBpKDY4uUFDvCekh-73" value="" style="endArrow=none;html=1;rounded=0;entryX=0.49;entryY=1.011;entryDx=0;entryDy=0;entryPerimeter=0;" parent="1" source="Nx9srBpKDY4uUFDvCekh-60" target="Nx9srBpKDY4uUFDvCekh-47" edge="1">
          <mxGeometry width="50" height="50" relative="1" as="geometry">
            <mxPoint x="203" y="672" as="sourcePoint" />
            <mxPoint x="288" y="637" as="targetPoint" />
          </mxGeometry>
        </mxCell>
        <mxCell id="Nx9srBpKDY4uUFDvCekh-74" value="" style="endArrow=none;html=1;rounded=0;entryX=0.691;entryY=1.026;entryDx=0;entryDy=0;entryPerimeter=0;exitX=0.286;exitY=0.2;exitDx=0;exitDy=0;exitPerimeter=0;" parent="1" target="Nx9srBpKDY4uUFDvCekh-47" edge="1">
          <mxGeometry width="50" height="50" relative="1" as="geometry">
            <mxPoint x="433.0200000000002" y="668" as="sourcePoint" />
            <mxPoint x="298" y="647" as="targetPoint" />
          </mxGeometry>
        </mxCell>
        <mxCell id="0A-Gsc1vRNAE1-bes-Se-38" value="" style="endArrow=none;html=1;rounded=0;entryX=0.413;entryY=0.078;entryDx=0;entryDy=0;entryPerimeter=0;" parent="1" source="0A-Gsc1vRNAE1-bes-Se-37" target="0A-Gsc1vRNAE1-bes-Se-31" edge="1">
          <mxGeometry width="50" height="50" relative="1" as="geometry">
            <mxPoint x="841" y="419" as="sourcePoint" />
            <mxPoint x="621" y="389" as="targetPoint" />
          </mxGeometry>
        </mxCell>
        <mxCell id="Nx9srBpKDY4uUFDvCekh-18" value="" style="endArrow=none;html=1;rounded=0;" parent="1" source="Nx9srBpKDY4uUFDvCekh-16" target="0A-Gsc1vRNAE1-bes-Se-31" edge="1">
          <mxGeometry width="50" height="50" relative="1" as="geometry">
            <mxPoint x="841" y="429" as="sourcePoint" />
            <mxPoint x="891" y="379" as="targetPoint" />
          </mxGeometry>
        </mxCell>
        <mxCell id="0A-Gsc1vRNAE1-bes-Se-39" value="" style="endArrow=none;html=1;rounded=0;exitX=0.483;exitY=0.04;exitDx=0;exitDy=0;exitPerimeter=0;entryX=0.59;entryY=0.004;entryDx=0;entryDy=0;entryPerimeter=0;" parent="1" source="0A-Gsc1vRNAE1-bes-Se-34" target="0A-Gsc1vRNAE1-bes-Se-31" edge="1">
          <mxGeometry width="50" height="50" relative="1" as="geometry">
            <mxPoint x="851" y="429" as="sourcePoint" />
            <mxPoint x="861" y="389" as="targetPoint" />
          </mxGeometry>
        </mxCell>
        <mxCell id="Nx9srBpKDY4uUFDvCekh-7" value="" style="endArrow=none;html=1;rounded=0;entryX=0;entryY=0.5;entryDx=0;entryDy=0;" parent="1" target="0A-Gsc1vRNAE1-bes-Se-30" edge="1">
          <mxGeometry width="50" height="50" relative="1" as="geometry">
            <mxPoint x="636" y="359" as="sourcePoint" />
            <mxPoint x="726" y="359.71" as="targetPoint" />
          </mxGeometry>
        </mxCell>
        <mxCell id="0A-Gsc1vRNAE1-bes-Se-27" value="" style="endArrow=none;html=1;rounded=0;entryX=0.031;entryY=0.461;entryDx=0;entryDy=0;entryPerimeter=0;" parent="1" source="0A-Gsc1vRNAE1-bes-Se-7" target="0A-Gsc1vRNAE1-bes-Se-1" edge="1">
          <mxGeometry width="50" height="50" relative="1" as="geometry">
            <mxPoint x="124.75999999999999" y="421.6" as="sourcePoint" />
            <mxPoint x="251" y="370" as="targetPoint" />
          </mxGeometry>
        </mxCell>
        <mxCell id="0A-Gsc1vRNAE1-bes-Se-5" value="" style="endArrow=none;html=1;rounded=0;exitX=0.451;exitY=0.08;exitDx=0;exitDy=0;exitPerimeter=0;entryX=0.656;entryY=0.039;entryDx=0;entryDy=0;entryPerimeter=0;" parent="1" source="0A-Gsc1vRNAE1-bes-Se-4" target="0A-Gsc1vRNAE1-bes-Se-1" edge="1">
          <mxGeometry width="50" height="50" relative="1" as="geometry">
            <mxPoint x="371" y="480" as="sourcePoint" />
            <mxPoint x="421" y="430" as="targetPoint" />
          </mxGeometry>
        </mxCell>
        <mxCell id="0A-Gsc1vRNAE1-bes-Se-25" value="" style="endArrow=none;html=1;rounded=0;exitX=0.549;exitY=0.013;exitDx=0;exitDy=0;exitPerimeter=0;" parent="1" source="0A-Gsc1vRNAE1-bes-Se-9" target="0A-Gsc1vRNAE1-bes-Se-1" edge="1">
          <mxGeometry width="50" height="50" relative="1" as="geometry">
            <mxPoint x="291" y="420" as="sourcePoint" />
            <mxPoint x="341" y="380" as="targetPoint" />
          </mxGeometry>
        </mxCell>
        <mxCell id="0A-Gsc1vRNAE1-bes-Se-26" value="" style="endArrow=none;html=1;rounded=0;exitX=1;exitY=0.5;exitDx=0;exitDy=0;entryX=0;entryY=0.5;entryDx=0;entryDy=0;" parent="1" source="0A-Gsc1vRNAE1-bes-Se-10" target="0A-Gsc1vRNAE1-bes-Se-1" edge="1">
          <mxGeometry width="50" height="50" relative="1" as="geometry">
            <mxPoint x="201" y="380" as="sourcePoint" />
            <mxPoint x="213" y="340" as="targetPoint" />
          </mxGeometry>
        </mxCell>
        <mxCell id="0A-Gsc1vRNAE1-bes-Se-28" value="" style="endArrow=none;html=1;rounded=0;entryX=0.425;entryY=1.01;entryDx=0;entryDy=0;entryPerimeter=0;exitX=0.5;exitY=0;exitDx=0;exitDy=0;" parent="1" source="0A-Gsc1vRNAE1-bes-Se-12" target="0A-Gsc1vRNAE1-bes-Se-1" edge="1">
          <mxGeometry width="50" height="50" relative="1" as="geometry">
            <mxPoint x="151" y="430" as="sourcePoint" />
            <mxPoint x="265" y="382" as="targetPoint" />
          </mxGeometry>
        </mxCell>
        <mxCell id="0A-Gsc1vRNAE1-bes-Se-16" value="" style="group;labelBackgroundColor=default;" parent="1" vertex="1" connectable="0">
          <mxGeometry x="286" y="279" width="70" height="30" as="geometry" />
        </mxCell>
        <mxCell id="0A-Gsc1vRNAE1-bes-Se-6" value="" style="ellipse;whiteSpace=wrap;html=1;" parent="0A-Gsc1vRNAE1-bes-Se-16" vertex="1">
          <mxGeometry width="70" height="30" as="geometry" />
        </mxCell>
        <mxCell id="0A-Gsc1vRNAE1-bes-Se-9" value="Nombre" style="text;html=1;align=center;verticalAlign=middle;resizable=0;points=[];autosize=1;strokeColor=none;fillColor=none;" parent="0A-Gsc1vRNAE1-bes-Se-16" vertex="1">
          <mxGeometry width="70" height="30" as="geometry" />
        </mxCell>
        <mxCell id="0A-Gsc1vRNAE1-bes-Se-18" value="" style="group;labelBackgroundColor=default;" parent="1" vertex="1" connectable="0">
          <mxGeometry x="371" y="280" width="70" height="30" as="geometry" />
        </mxCell>
        <mxCell id="0A-Gsc1vRNAE1-bes-Se-13" value="" style="ellipse;whiteSpace=wrap;html=1;" parent="0A-Gsc1vRNAE1-bes-Se-18" vertex="1">
          <mxGeometry width="70" height="30" as="geometry" />
        </mxCell>
        <mxCell id="0A-Gsc1vRNAE1-bes-Se-4" value="Apellidos" style="text;html=1;align=center;verticalAlign=middle;resizable=0;points=[];autosize=1;strokeColor=none;fillColor=none;" parent="0A-Gsc1vRNAE1-bes-Se-18" vertex="1">
          <mxGeometry width="70" height="30" as="geometry" />
        </mxCell>
        <mxCell id="0A-Gsc1vRNAE1-bes-Se-19" value="" style="group;labelBackgroundColor=default;" parent="1" vertex="1" connectable="0">
          <mxGeometry x="151" y="330" width="60" height="30" as="geometry" />
        </mxCell>
        <mxCell id="0A-Gsc1vRNAE1-bes-Se-10" value="" style="ellipse;whiteSpace=wrap;html=1;" parent="0A-Gsc1vRNAE1-bes-Se-19" vertex="1">
          <mxGeometry width="60" height="30" as="geometry" />
        </mxCell>
        <mxCell id="0A-Gsc1vRNAE1-bes-Se-8" value="&lt;u&gt;DNI&lt;/u&gt;" style="text;html=1;align=center;verticalAlign=middle;resizable=0;points=[];autosize=1;strokeColor=none;fillColor=none;" parent="0A-Gsc1vRNAE1-bes-Se-19" vertex="1">
          <mxGeometry x="10" width="40" height="30" as="geometry" />
        </mxCell>
        <mxCell id="0A-Gsc1vRNAE1-bes-Se-21" value="" style="group;labelBackgroundColor=default;" parent="1" vertex="1" connectable="0">
          <mxGeometry x="131" y="384" width="120" height="40" as="geometry" />
        </mxCell>
        <mxCell id="0A-Gsc1vRNAE1-bes-Se-11" value="" style="ellipse;whiteSpace=wrap;html=1;" parent="0A-Gsc1vRNAE1-bes-Se-21" vertex="1">
          <mxGeometry width="120" height="40" as="geometry" />
        </mxCell>
        <mxCell id="0A-Gsc1vRNAE1-bes-Se-7" value="Fecha nacimiento" style="text;html=1;align=center;verticalAlign=middle;resizable=0;points=[];autosize=1;strokeColor=none;fillColor=none;" parent="0A-Gsc1vRNAE1-bes-Se-21" vertex="1">
          <mxGeometry y="5" width="120" height="30" as="geometry" />
        </mxCell>
        <mxCell id="0A-Gsc1vRNAE1-bes-Se-22" value="" style="group;labelBackgroundColor=default;" parent="1" vertex="1" connectable="0">
          <mxGeometry x="141" y="240" width="205" height="40" as="geometry" />
        </mxCell>
        <mxCell id="0A-Gsc1vRNAE1-bes-Se-12" value="" style="ellipse;whiteSpace=wrap;html=1;" parent="0A-Gsc1vRNAE1-bes-Se-22" vertex="1">
          <mxGeometry width="145" height="40" as="geometry" />
        </mxCell>
        <mxCell id="0A-Gsc1vRNAE1-bes-Se-15" value="Correo electrónico" style="text;html=1;align=center;verticalAlign=middle;resizable=0;points=[];autosize=1;strokeColor=none;fillColor=none;" parent="0A-Gsc1vRNAE1-bes-Se-22" vertex="1">
          <mxGeometry x="12.5" y="5" width="120" height="30" as="geometry" />
        </mxCell>
        <mxCell id="Nx9srBpKDY4uUFDvCekh-9" value="" style="group;labelBackgroundColor=none;" parent="0A-Gsc1vRNAE1-bes-Se-22" vertex="1" connectable="0">
          <mxGeometry x="75" y="10" width="130" height="25" as="geometry" />
        </mxCell>
        <mxCell id="Nx9srBpKDY4uUFDvCekh-10" value="" style="ellipse;whiteSpace=wrap;html=1;labelBackgroundColor=#4C0099;fillColor=none;" parent="Nx9srBpKDY4uUFDvCekh-9" vertex="1">
          <mxGeometry x="-70" y="-5" width="135" height="30" as="geometry" />
        </mxCell>
        <mxCell id="0A-Gsc1vRNAE1-bes-Se-23" value="" style="group" parent="1" vertex="1" connectable="0">
          <mxGeometry x="241" y="339" width="120" height="40" as="geometry" />
        </mxCell>
        <object label="" id="0A-Gsc1vRNAE1-bes-Se-1">
          <mxCell style="rounded=0;whiteSpace=wrap;html=1;labelBackgroundColor=default;" parent="0A-Gsc1vRNAE1-bes-Se-23" vertex="1">
            <mxGeometry width="120" height="40" as="geometry" />
          </mxCell>
        </object>
        <mxCell id="0A-Gsc1vRNAE1-bes-Se-2" value="&lt;span style=&quot;color: rgb(55, 58, 60); font-family: -apple-system, BlinkMacSystemFont, &amp;quot;Segoe UI&amp;quot;, Roboto, &amp;quot;Helvetica Neue&amp;quot;, Arial, &amp;quot;Noto Sans&amp;quot;, &amp;quot;Liberation Sans&amp;quot;, sans-serif, &amp;quot;Apple Color Emoji&amp;quot;, &amp;quot;Segoe UI Emoji&amp;quot;, &amp;quot;Segoe UI Symbol&amp;quot;, &amp;quot;Noto Color Emoji&amp;quot;; font-size: 15px; text-align: left; text-wrap-mode: wrap; background-color: rgb(255, 255, 255);&quot;&gt;Alumnos&lt;/span&gt;" style="text;html=1;align=center;verticalAlign=middle;resizable=0;points=[];autosize=1;strokeColor=none;fillColor=none;" parent="0A-Gsc1vRNAE1-bes-Se-23" vertex="1">
          <mxGeometry x="20" y="5" width="80" height="30" as="geometry" />
        </mxCell>
        <mxCell id="0A-Gsc1vRNAE1-bes-Se-29" value="" style="group;labelBackgroundColor=default;" parent="1" vertex="1" connectable="0">
          <mxGeometry x="821" y="339" width="120" height="45" as="geometry" />
        </mxCell>
        <object label="" id="0A-Gsc1vRNAE1-bes-Se-30">
          <mxCell style="rounded=0;whiteSpace=wrap;html=1;" parent="0A-Gsc1vRNAE1-bes-Se-29" vertex="1">
            <mxGeometry width="120" height="40" as="geometry" />
          </mxCell>
        </object>
        <mxCell id="0A-Gsc1vRNAE1-bes-Se-31" value="&lt;span style=&quot;color: rgb(55, 58, 60); font-family: -apple-system, BlinkMacSystemFont, &amp;quot;Segoe UI&amp;quot;, Roboto, &amp;quot;Helvetica Neue&amp;quot;, Arial, &amp;quot;Noto Sans&amp;quot;, &amp;quot;Liberation Sans&amp;quot;, sans-serif, &amp;quot;Apple Color Emoji&amp;quot;, &amp;quot;Segoe UI Emoji&amp;quot;, &amp;quot;Segoe UI Symbol&amp;quot;, &amp;quot;Noto Color Emoji&amp;quot;; font-size: 15px; text-align: left; text-wrap-mode: wrap; background-color: rgb(255, 255, 255);&quot;&gt;Cursos&lt;/span&gt;" style="text;html=1;align=center;verticalAlign=middle;resizable=0;points=[];autosize=1;strokeColor=none;fillColor=none;" parent="0A-Gsc1vRNAE1-bes-Se-29" vertex="1">
          <mxGeometry x="25" y="5" width="70" height="30" as="geometry" />
        </mxCell>
        <mxCell id="0A-Gsc1vRNAE1-bes-Se-32" value="" style="group;labelBackgroundColor=default;" parent="1" vertex="1" connectable="0">
          <mxGeometry x="901" y="280" width="70" height="30" as="geometry" />
        </mxCell>
        <mxCell id="0A-Gsc1vRNAE1-bes-Se-33" value="" style="ellipse;whiteSpace=wrap;html=1;" parent="0A-Gsc1vRNAE1-bes-Se-32" vertex="1">
          <mxGeometry width="70" height="30" as="geometry" />
        </mxCell>
        <mxCell id="0A-Gsc1vRNAE1-bes-Se-34" value="Nombre" style="text;html=1;align=center;verticalAlign=middle;resizable=0;points=[];autosize=1;strokeColor=none;fillColor=none;" parent="0A-Gsc1vRNAE1-bes-Se-32" vertex="1">
          <mxGeometry width="70" height="30" as="geometry" />
        </mxCell>
        <mxCell id="0A-Gsc1vRNAE1-bes-Se-35" value="" style="group;labelBackgroundColor=default;" parent="1" vertex="1" connectable="0">
          <mxGeometry x="811" y="280" width="70" height="30" as="geometry" />
        </mxCell>
        <mxCell id="0A-Gsc1vRNAE1-bes-Se-36" value="" style="ellipse;whiteSpace=wrap;html=1;" parent="0A-Gsc1vRNAE1-bes-Se-35" vertex="1">
          <mxGeometry width="70" height="30" as="geometry" />
        </mxCell>
        <mxCell id="0A-Gsc1vRNAE1-bes-Se-37" value="&lt;u&gt;Código&lt;/u&gt;" style="text;html=1;align=center;verticalAlign=middle;resizable=0;points=[];autosize=1;strokeColor=none;fillColor=none;" parent="0A-Gsc1vRNAE1-bes-Se-35" vertex="1">
          <mxGeometry x="5" width="60" height="30" as="geometry" />
        </mxCell>
        <mxCell id="Nx9srBpKDY4uUFDvCekh-2" value="" style="group;labelBackgroundColor=default;" parent="1" vertex="1" connectable="0">
          <mxGeometry x="496" y="337" width="170" height="50" as="geometry" />
        </mxCell>
        <mxCell id="0A-Gsc1vRNAE1-bes-Se-40" value="" style="rhombus;whiteSpace=wrap;html=1;" parent="Nx9srBpKDY4uUFDvCekh-2" vertex="1">
          <mxGeometry x="10" y="-6" width="140" height="56" as="geometry" />
        </mxCell>
        <mxCell id="Nx9srBpKDY4uUFDvCekh-1" value="&lt;span style=&quot;color: rgb(55, 58, 60); font-family: -apple-system, BlinkMacSystemFont, &amp;quot;Segoe UI&amp;quot;, Roboto, &amp;quot;Helvetica Neue&amp;quot;, Arial, &amp;quot;Noto Sans&amp;quot;, &amp;quot;Liberation Sans&amp;quot;, sans-serif, &amp;quot;Apple Color Emoji&amp;quot;, &amp;quot;Segoe UI Emoji&amp;quot;, &amp;quot;Segoe UI Symbol&amp;quot;, &amp;quot;Noto Color Emoji&amp;quot;; font-size: 15px; text-align: left; text-wrap-mode: wrap; background-color: rgb(255, 255, 255);&quot;&gt;se matriculan&lt;/span&gt;" style="text;html=1;align=center;verticalAlign=middle;resizable=0;points=[];autosize=1;strokeColor=none;fillColor=none;" parent="Nx9srBpKDY4uUFDvCekh-2" vertex="1">
          <mxGeometry x="25" y="3.005000000000001" width="110" height="30" as="geometry" />
        </mxCell>
        <mxCell id="Nx9srBpKDY4uUFDvCekh-5" value="" style="endArrow=none;html=1;rounded=0;exitX=1;exitY=0.5;exitDx=0;exitDy=0;" parent="1" source="0A-Gsc1vRNAE1-bes-Se-1" edge="1">
          <mxGeometry width="50" height="50" relative="1" as="geometry">
            <mxPoint x="446" y="500" as="sourcePoint" />
            <mxPoint x="506" y="359" as="targetPoint" />
          </mxGeometry>
        </mxCell>
        <mxCell id="Nx9srBpKDY4uUFDvCekh-12" value="(1,1)" style="text;html=1;align=center;verticalAlign=middle;whiteSpace=wrap;rounded=0;" parent="1" vertex="1">
          <mxGeometry x="761" y="330" width="60" height="30" as="geometry" />
        </mxCell>
        <mxCell id="Nx9srBpKDY4uUFDvCekh-13" value="(1,&lt;span style=&quot;background-color: initial;&quot;&gt;N)&lt;/span&gt;" style="text;html=1;align=center;verticalAlign=middle;whiteSpace=wrap;rounded=0;" parent="1" vertex="1">
          <mxGeometry x="361" y="330" width="60" height="30" as="geometry" />
        </mxCell>
        <mxCell id="Nx9srBpKDY4uUFDvCekh-14" value="" style="group" parent="1" vertex="1" connectable="0">
          <mxGeometry x="703" y="622" width="334.99947368421044" height="130" as="geometry" />
        </mxCell>
        <mxCell id="Nx9srBpKDY4uUFDvCekh-34" value="" style="endArrow=none;html=1;rounded=0;entryX=0.484;entryY=1.09;entryDx=0;entryDy=0;entryPerimeter=0;exitX=0.292;exitY=0.07;exitDx=0;exitDy=0;exitPerimeter=0;" parent="Nx9srBpKDY4uUFDvCekh-14" source="Nx9srBpKDY4uUFDvCekh-28" target="Nx9srBpKDY4uUFDvCekh-16" edge="1">
          <mxGeometry width="50" height="50" relative="1" as="geometry">
            <mxPoint x="163" y="66" as="sourcePoint" />
            <mxPoint x="182" y="31" as="targetPoint" />
          </mxGeometry>
        </mxCell>
        <mxCell id="gpF7KN1XJqeLBAZZ5U66-5" value="" style="endArrow=none;html=1;rounded=0;entryX=0.517;entryY=1.108;entryDx=0;entryDy=0;entryPerimeter=0;" parent="Nx9srBpKDY4uUFDvCekh-14" source="Nx9srBpKDY4uUFDvCekh-38" target="Nx9srBpKDY4uUFDvCekh-16" edge="1">
          <mxGeometry relative="1" as="geometry">
            <mxPoint x="90.00421052631566" y="71.00000000000011" as="sourcePoint" />
            <mxPoint x="149.2352631578948" y="36.000000000000114" as="targetPoint" />
          </mxGeometry>
        </mxCell>
        <object label="" id="Nx9srBpKDY4uUFDvCekh-15">
          <mxCell style="rounded=0;whiteSpace=wrap;html=1;labelBackgroundColor=default;" parent="Nx9srBpKDY4uUFDvCekh-14" vertex="1">
            <mxGeometry x="120" y="-17" width="120" height="40" as="geometry" />
          </mxCell>
        </object>
        <mxCell id="Nx9srBpKDY4uUFDvCekh-16" value="&lt;div style=&quot;text-align: left;&quot;&gt;&lt;font face=&quot;-apple-system, BlinkMacSystemFont, Segoe UI, Roboto, Helvetica Neue, Arial, Noto Sans, Liberation Sans, sans-serif, Apple Color Emoji, Segoe UI Emoji, Segoe UI Symbol, Noto Color Emoji&quot; color=&quot;#373a3c&quot;&gt;&lt;span style=&quot;font-size: 15px; text-wrap-mode: wrap; background-color: rgb(255, 255, 255);&quot;&gt;Asignaturas&lt;/span&gt;&lt;/font&gt;&lt;/div&gt;" style="text;html=1;align=center;verticalAlign=middle;resizable=0;points=[];autosize=1;strokeColor=none;fillColor=none;" parent="Nx9srBpKDY4uUFDvCekh-14" vertex="1">
          <mxGeometry x="130" y="-12" width="100" height="30" as="geometry" />
        </mxCell>
        <mxCell id="gpF7KN1XJqeLBAZZ5U66-2" value="Horas totales curso" style="ellipse;whiteSpace=wrap;html=1;align=center;" parent="Nx9srBpKDY4uUFDvCekh-14" vertex="1">
          <mxGeometry x="270" y="23" width="100" height="40" as="geometry" />
        </mxCell>
        <mxCell id="gpF7KN1XJqeLBAZZ5U66-6" value="" style="endArrow=none;html=1;rounded=0;entryX=0.5;entryY=1;entryDx=0;entryDy=0;" parent="Nx9srBpKDY4uUFDvCekh-14" source="gpF7KN1XJqeLBAZZ5U66-2" target="Nx9srBpKDY4uUFDvCekh-15" edge="1">
          <mxGeometry relative="1" as="geometry">
            <mxPoint x="80" y="23" as="sourcePoint" />
            <mxPoint x="240" y="23" as="targetPoint" />
          </mxGeometry>
        </mxCell>
        <mxCell id="Nx9srBpKDY4uUFDvCekh-39" value="" style="group" parent="Nx9srBpKDY4uUFDvCekh-14" vertex="1" connectable="0">
          <mxGeometry x="-23.000526315789557" y="88" width="120.0005263157895" height="30" as="geometry" />
        </mxCell>
        <mxCell id="Nx9srBpKDY4uUFDvCekh-37" value="" style="ellipse;whiteSpace=wrap;html=1;" parent="Nx9srBpKDY4uUFDvCekh-39" vertex="1">
          <mxGeometry x="0.0005263157895001314" width="120" height="30" as="geometry" />
        </mxCell>
        <mxCell id="Nx9srBpKDY4uUFDvCekh-38" value="Horas semanales" style="text;html=1;align=center;verticalAlign=middle;resizable=0;points=[];autosize=1;strokeColor=none;fillColor=none;" parent="Nx9srBpKDY4uUFDvCekh-39" vertex="1">
          <mxGeometry width="120" height="30" as="geometry" />
        </mxCell>
        <mxCell id="Nx9srBpKDY4uUFDvCekh-29" value="" style="group;labelBackgroundColor=default;" parent="Nx9srBpKDY4uUFDvCekh-14" vertex="1" connectable="0">
          <mxGeometry x="145" y="78" width="70" height="30" as="geometry" />
        </mxCell>
        <mxCell id="Nx9srBpKDY4uUFDvCekh-30" value="" style="ellipse;whiteSpace=wrap;html=1;" parent="Nx9srBpKDY4uUFDvCekh-29" vertex="1">
          <mxGeometry width="70" height="30" as="geometry" />
        </mxCell>
        <mxCell id="Nx9srBpKDY4uUFDvCekh-31" value="&lt;u&gt;Código&lt;/u&gt;" style="text;html=1;align=center;verticalAlign=middle;resizable=0;points=[];autosize=1;strokeColor=none;fillColor=none;" parent="Nx9srBpKDY4uUFDvCekh-29" vertex="1">
          <mxGeometry x="5" width="60" height="30" as="geometry" />
        </mxCell>
        <mxCell id="Nx9srBpKDY4uUFDvCekh-33" value="" style="endArrow=none;html=1;rounded=0;entryX=0.5;entryY=1;entryDx=0;entryDy=0;" parent="Nx9srBpKDY4uUFDvCekh-14" source="Nx9srBpKDY4uUFDvCekh-31" target="Nx9srBpKDY4uUFDvCekh-15" edge="1">
          <mxGeometry width="50" height="50" relative="1" as="geometry">
            <mxPoint x="-120" y="-94" as="sourcePoint" />
            <mxPoint x="180" y="18" as="targetPoint" />
          </mxGeometry>
        </mxCell>
        <mxCell id="Nx9srBpKDY4uUFDvCekh-26" value="" style="group;labelBackgroundColor=default;" parent="Nx9srBpKDY4uUFDvCekh-14" vertex="1" connectable="0">
          <mxGeometry x="247" y="78" width="70" height="30" as="geometry" />
        </mxCell>
        <mxCell id="Nx9srBpKDY4uUFDvCekh-27" value="" style="ellipse;whiteSpace=wrap;html=1;" parent="Nx9srBpKDY4uUFDvCekh-26" vertex="1">
          <mxGeometry width="70" height="30" as="geometry" />
        </mxCell>
        <mxCell id="Nx9srBpKDY4uUFDvCekh-28" value="Nombre" style="text;html=1;align=center;verticalAlign=middle;resizable=0;points=[];autosize=1;strokeColor=none;fillColor=none;" parent="Nx9srBpKDY4uUFDvCekh-26" vertex="1">
          <mxGeometry width="70" height="30" as="geometry" />
        </mxCell>
        <mxCell id="Nx9srBpKDY4uUFDvCekh-19" value="" style="group;labelBackgroundColor=default;" parent="1" vertex="1" connectable="0">
          <mxGeometry x="835" y="487" width="100" height="40" as="geometry" />
        </mxCell>
        <mxCell id="Nx9srBpKDY4uUFDvCekh-20" value="" style="rhombus;whiteSpace=wrap;html=1;" parent="Nx9srBpKDY4uUFDvCekh-19" vertex="1">
          <mxGeometry x="5.882352941176468" y="-4.800000000000001" width="82.35294117647057" height="44.800000000000004" as="geometry" />
        </mxCell>
        <mxCell id="Nx9srBpKDY4uUFDvCekh-21" value="&lt;span style=&quot;color: rgb(55, 58, 60); font-family: -apple-system, BlinkMacSystemFont, &amp;quot;Segoe UI&amp;quot;, Roboto, &amp;quot;Helvetica Neue&amp;quot;, Arial, &amp;quot;Noto Sans&amp;quot;, &amp;quot;Liberation Sans&amp;quot;, sans-serif, &amp;quot;Apple Color Emoji&amp;quot;, &amp;quot;Segoe UI Emoji&amp;quot;, &amp;quot;Segoe UI Symbol&amp;quot;, &amp;quot;Noto Color Emoji&amp;quot;; font-size: 15px; text-align: left; text-wrap-mode: wrap; background-color: rgb(255, 255, 255);&quot;&gt;tienen&lt;/span&gt;" style="text;html=1;align=center;verticalAlign=middle;resizable=0;points=[];autosize=1;strokeColor=none;fillColor=none;" parent="Nx9srBpKDY4uUFDvCekh-19" vertex="1">
          <mxGeometry x="17.061764705882347" y="1.604000000000001" width="60" height="30" as="geometry" />
        </mxCell>
        <mxCell id="Nx9srBpKDY4uUFDvCekh-25" value="(1,N)" style="text;html=1;align=center;verticalAlign=middle;whiteSpace=wrap;rounded=0;" parent="1" vertex="1">
          <mxGeometry x="874" y="582" width="60" height="30" as="geometry" />
        </mxCell>
        <mxCell id="Nx9srBpKDY4uUFDvCekh-45" value="" style="group" parent="1" vertex="1" connectable="0">
          <mxGeometry x="268" y="607" width="120" height="40" as="geometry" />
        </mxCell>
        <object label="" id="Nx9srBpKDY4uUFDvCekh-46">
          <mxCell style="rounded=0;whiteSpace=wrap;html=1;labelBackgroundColor=default;" parent="Nx9srBpKDY4uUFDvCekh-45" vertex="1">
            <mxGeometry width="120" height="40" as="geometry" />
          </mxCell>
        </object>
        <mxCell id="Nx9srBpKDY4uUFDvCekh-47" value="&lt;div style=&quot;text-align: left;&quot;&gt;&lt;font face=&quot;-apple-system, BlinkMacSystemFont, Segoe UI, Roboto, Helvetica Neue, Arial, Noto Sans, Liberation Sans, sans-serif, Apple Color Emoji, Segoe UI Emoji, Segoe UI Symbol, Noto Color Emoji&quot; color=&quot;#373a3c&quot;&gt;&lt;span style=&quot;font-size: 15px; text-wrap-mode: wrap; background-color: rgb(255, 255, 255);&quot;&gt;Profesores&lt;/span&gt;&lt;/font&gt;&lt;/div&gt;" style="text;html=1;align=center;verticalAlign=middle;resizable=0;points=[];autosize=1;strokeColor=none;fillColor=none;" parent="Nx9srBpKDY4uUFDvCekh-45" vertex="1">
          <mxGeometry x="10" y="5" width="100" height="30" as="geometry" />
        </mxCell>
        <mxCell id="Nx9srBpKDY4uUFDvCekh-48" value="" style="endArrow=none;html=1;rounded=0;exitX=1;exitY=0.5;exitDx=0;exitDy=0;entryX=0;entryY=0.5;entryDx=0;entryDy=0;" parent="1" source="Nx9srBpKDY4uUFDvCekh-46" target="Nx9srBpKDY4uUFDvCekh-15" edge="1">
          <mxGeometry width="50" height="50" relative="1" as="geometry">
            <mxPoint x="668" y="528" as="sourcePoint" />
            <mxPoint x="718" y="478" as="targetPoint" />
          </mxGeometry>
        </mxCell>
        <mxCell id="Nx9srBpKDY4uUFDvCekh-49" value="" style="group;labelBackgroundColor=default;" parent="1" vertex="1" connectable="0">
          <mxGeometry x="498" y="605" width="170" height="50" as="geometry" />
        </mxCell>
        <mxCell id="Nx9srBpKDY4uUFDvCekh-50" value="" style="rhombus;whiteSpace=wrap;html=1;" parent="Nx9srBpKDY4uUFDvCekh-49" vertex="1">
          <mxGeometry x="10" y="-6" width="140" height="56" as="geometry" />
        </mxCell>
        <mxCell id="Nx9srBpKDY4uUFDvCekh-51" value="&lt;span style=&quot;color: rgb(55, 58, 60); font-family: -apple-system, BlinkMacSystemFont, &amp;quot;Segoe UI&amp;quot;, Roboto, &amp;quot;Helvetica Neue&amp;quot;, Arial, &amp;quot;Noto Sans&amp;quot;, &amp;quot;Liberation Sans&amp;quot;, sans-serif, &amp;quot;Apple Color Emoji&amp;quot;, &amp;quot;Segoe UI Emoji&amp;quot;, &amp;quot;Segoe UI Symbol&amp;quot;, &amp;quot;Noto Color Emoji&amp;quot;; font-size: 15px; text-align: left; text-wrap-mode: wrap; background-color: rgb(255, 255, 255);&quot;&gt;imparten&lt;/span&gt;" style="text;html=1;align=center;verticalAlign=middle;resizable=0;points=[];autosize=1;strokeColor=none;fillColor=none;" parent="Nx9srBpKDY4uUFDvCekh-49" vertex="1">
          <mxGeometry x="40" y="3.005000000000001" width="80" height="30" as="geometry" />
        </mxCell>
        <mxCell id="Nx9srBpKDY4uUFDvCekh-55" value="" style="group;labelBackgroundColor=default;" parent="1" vertex="1" connectable="0">
          <mxGeometry x="421" y="655" width="70" height="30" as="geometry" />
        </mxCell>
        <mxCell id="Nx9srBpKDY4uUFDvCekh-56" value="" style="ellipse;whiteSpace=wrap;html=1;" parent="Nx9srBpKDY4uUFDvCekh-55" vertex="1">
          <mxGeometry width="70" height="30" as="geometry" />
        </mxCell>
        <mxCell id="Nx9srBpKDY4uUFDvCekh-57" value="Apellidos" style="text;html=1;align=center;verticalAlign=middle;resizable=0;points=[];autosize=1;strokeColor=none;fillColor=none;" parent="Nx9srBpKDY4uUFDvCekh-55" vertex="1">
          <mxGeometry width="70" height="30" as="geometry" />
        </mxCell>
        <mxCell id="Nx9srBpKDY4uUFDvCekh-58" value="" style="group;labelBackgroundColor=default;" parent="1" vertex="1" connectable="0">
          <mxGeometry x="338" y="677" width="60" height="30" as="geometry" />
        </mxCell>
        <mxCell id="Nx9srBpKDY4uUFDvCekh-59" value="" style="ellipse;whiteSpace=wrap;html=1;" parent="Nx9srBpKDY4uUFDvCekh-58" vertex="1">
          <mxGeometry width="60" height="30" as="geometry" />
        </mxCell>
        <mxCell id="Nx9srBpKDY4uUFDvCekh-60" value="&lt;u&gt;DNI&lt;/u&gt;" style="text;html=1;align=center;verticalAlign=middle;resizable=0;points=[];autosize=1;strokeColor=none;fillColor=none;" parent="Nx9srBpKDY4uUFDvCekh-58" vertex="1">
          <mxGeometry x="10" width="40" height="30" as="geometry" />
        </mxCell>
        <mxCell id="Nx9srBpKDY4uUFDvCekh-52" value="" style="group;labelBackgroundColor=default;" parent="1" vertex="1" connectable="0">
          <mxGeometry x="223" y="668" width="70" height="30" as="geometry" />
        </mxCell>
        <mxCell id="Nx9srBpKDY4uUFDvCekh-53" value="" style="ellipse;whiteSpace=wrap;html=1;" parent="Nx9srBpKDY4uUFDvCekh-52" vertex="1">
          <mxGeometry width="70" height="30" as="geometry" />
        </mxCell>
        <mxCell id="Nx9srBpKDY4uUFDvCekh-54" value="Nombre" style="text;html=1;align=center;verticalAlign=middle;resizable=0;points=[];autosize=1;strokeColor=none;fillColor=none;" parent="Nx9srBpKDY4uUFDvCekh-52" vertex="1">
          <mxGeometry width="70" height="30" as="geometry" />
        </mxCell>
        <mxCell id="Nx9srBpKDY4uUFDvCekh-66" value="" style="group;labelBackgroundColor=default;" parent="1" vertex="1" connectable="0">
          <mxGeometry x="133" y="570" width="205" height="40" as="geometry" />
        </mxCell>
        <mxCell id="Nx9srBpKDY4uUFDvCekh-67" value="" style="ellipse;whiteSpace=wrap;html=1;" parent="Nx9srBpKDY4uUFDvCekh-66" vertex="1">
          <mxGeometry width="145" height="40" as="geometry" />
        </mxCell>
        <mxCell id="Nx9srBpKDY4uUFDvCekh-68" value="Correo electrónico" style="text;html=1;align=center;verticalAlign=middle;resizable=0;points=[];autosize=1;strokeColor=none;fillColor=none;" parent="Nx9srBpKDY4uUFDvCekh-66" vertex="1">
          <mxGeometry x="12.5" y="5" width="120" height="30" as="geometry" />
        </mxCell>
        <mxCell id="Nx9srBpKDY4uUFDvCekh-69" value="" style="group;labelBackgroundColor=none;" parent="Nx9srBpKDY4uUFDvCekh-66" vertex="1" connectable="0">
          <mxGeometry x="75" y="10" width="130" height="25" as="geometry" />
        </mxCell>
        <mxCell id="Nx9srBpKDY4uUFDvCekh-70" value="" style="ellipse;whiteSpace=wrap;html=1;labelBackgroundColor=#4C0099;fillColor=none;" parent="Nx9srBpKDY4uUFDvCekh-69" vertex="1">
          <mxGeometry x="-70" y="-5" width="135" height="30" as="geometry" />
        </mxCell>
        <mxCell id="Nx9srBpKDY4uUFDvCekh-75" value="(1,N)" style="text;html=1;align=center;verticalAlign=middle;whiteSpace=wrap;rounded=0;" parent="1" vertex="1">
          <mxGeometry x="763" y="588" width="60" height="54" as="geometry" />
        </mxCell>
        <mxCell id="Nx9srBpKDY4uUFDvCekh-76" value="(1,1)" style="text;html=1;align=center;verticalAlign=middle;whiteSpace=wrap;rounded=0;" parent="1" vertex="1">
          <mxGeometry x="388" y="600" width="40" height="30" as="geometry" />
        </mxCell>
        <mxCell id="Nx9srBpKDY4uUFDvCekh-77" value="(1,&lt;span style=&quot;background-color: initial;&quot;&gt;M)&lt;/span&gt;" style="text;html=1;align=center;verticalAlign=middle;whiteSpace=wrap;rounded=0;" parent="1" vertex="1">
          <mxGeometry x="868" y="379" width="60" height="30" as="geometry" />
        </mxCell>
        <mxCell id="Nx9srBpKDY4uUFDvCekh-78" value="M:N" style="text;html=1;align=center;verticalAlign=middle;whiteSpace=wrap;rounded=0;" parent="1" vertex="1">
          <mxGeometry x="921" y="476" width="60" height="54" as="geometry" />
        </mxCell>
        <mxCell id="Nx9srBpKDY4uUFDvCekh-80" style="edgeStyle=orthogonalEdgeStyle;rounded=0;orthogonalLoop=1;jettySize=auto;html=1;exitX=0.5;exitY=1;exitDx=0;exitDy=0;" parent="1" source="Nx9srBpKDY4uUFDvCekh-78" target="Nx9srBpKDY4uUFDvCekh-78" edge="1">
          <mxGeometry relative="1" as="geometry" />
        </mxCell>
        <mxCell id="Nx9srBpKDY4uUFDvCekh-81" value="N:1" style="text;html=1;align=center;verticalAlign=middle;whiteSpace=wrap;rounded=0;" parent="1" vertex="1">
          <mxGeometry x="546" y="288" width="60" height="54" as="geometry" />
        </mxCell>
        <mxCell id="Nx9srBpKDY4uUFDvCekh-82" value="1:N" style="text;html=1;align=center;verticalAlign=middle;whiteSpace=wrap;rounded=0;" parent="1" vertex="1">
          <mxGeometry x="548" y="557" width="60" height="54" as="geometry" />
        </mxCell>
        <mxCell id="QVtmdA6IdFmuldQ6TOYP-2" value="" style="swimlane;startSize=0;" vertex="1" parent="1">
          <mxGeometry x="40" y="40" width="520" height="120" as="geometry" />
        </mxCell>
        <mxCell id="QVtmdA6IdFmuldQ6TOYP-1" value="&lt;h1 style=&quot;margin-top: 0px;&quot;&gt;Tarea 3 - Centro de formación&lt;/h1&gt;&lt;h3&gt;&lt;font color=&quot;#4d4d4d&quot;&gt;Paula Portilla Lejarza.&amp;nbsp;&lt;/font&gt;&lt;span style=&quot;background-color: initial; font-size: 14.04px;&quot;&gt;&lt;font color=&quot;#4d4d4d&quot;&gt;Gestión de bases de datos. 1º ASIR onLine&lt;/font&gt;&lt;/span&gt;&lt;/h3&gt;" style="text;html=1;whiteSpace=wrap;overflow=hidden;rounded=0;" vertex="1" parent="QVtmdA6IdFmuldQ6TOYP-2">
          <mxGeometry x="40" y="20" width="860" height="120" as="geometry" />
        </mxCell>
      </root>
    </mxGraphModel>
  </diagram>
</mxfile>
